<svg width="640" height="166" viewBox="0 0 640 166" fill="none" xmlns="http://www.w3.org/2000/svg">
<path d="M145.65 86.65C145.65 102.95 146.55 111.1 148.35 111.1C150.15 111.1 152.55 109.05 155.55 104.95C158.65 100.75 161.65 95.4 164.55 88.9C167.55 82.3 169.35 79 169.95 79C170.65 79 171 79.4 171 80.2C171 83 169.3 88.1 165.9 95.5C158.6 111 152.05 118.75 146.25 118.75C144.05 118.75 142.05 118.5 140.25 118C138.45 117.4 137.35 116.85 136.95 116.35C135.95 115.15 135.45 110.75 135.45 103.15C135.45 85.15 136.05 70.55 137.25 59.35C131.45 65.05 126.15 71.55 121.35 78.85C123.45 86.85 124.5 93.8 124.5 99.7C124.5 105.5 123.35 110 121.05 113.2C118.85 116.4 116.05 118 112.65 118C108.55 118 106.5 114.05 106.5 106.15C106.5 100.75 108.65 93.6 112.95 84.7C110.95 77.7 108.05 70.85 104.25 64.15C102.65 73.25 100.2 82.55 96.9 92.05C93.6 101.55 90.2 108.65 86.7 113.35C83.2 117.95 79.05 120.25 74.25 120.25C70.75 120.25 69 118.9 69 116.2C69 114 69.75 112.45 71.25 111.55C72.75 110.65 74.5 110 76.5 109.6C78.6 109.1 79.95 108.55 80.55 107.95C84.45 103.85 88.1 96.85 91.5 86.95C95 77.05 97.55 66.9 99.15 56.5C94.85 50.9 92.7 46.75 92.7 44.05C92.7 41.25 93.4 38.8 94.8 36.7C96.3 34.6 98.7 33.55 102 33.55C103 33.55 103.85 34.85 104.55 37.45C105.25 39.95 105.6 42.6 105.6 45.4C111.7 54.3 116.35 63.5 119.55 73C125.15 63.8 131.55 55.3 138.75 47.5C141.85 28.6 145.45 19.15 149.55 19.15C150.95 19.15 152.4 20.2 153.9 22.3C155.5 24.4 156.3 26.55 156.3 28.75C156.3 35.55 153.35 42.45 147.45 49.45C146.25 57.95 145.65 70.35 145.65 86.65ZM114.45 91.15C112.05 96.45 110.85 101.2 110.85 105.4C110.85 109.5 111.35 111.55 112.35 111.55C113.35 111.55 114.1 110.35 114.6 107.95C115.1 105.45 115.35 102.85 115.35 100.15C115.35 97.45 115.05 94.45 114.45 91.15ZM166.705 104.95L167.605 88.15C167.605 77.45 168.105 71.6 169.105 70.6C170.105 69.6 171.855 68.15 174.355 66.25C176.955 64.25 178.805 63.25 179.905 63.25C181.105 63.25 181.855 63.45 182.155 63.85C182.455 64.25 182.605 65.05 182.605 66.25C182.605 70.55 181.655 74.9 179.755 79.3C178.255 88.5 177.505 96.05 177.505 101.95C177.505 107.85 178.205 110.8 179.605 110.8C182.005 110.8 184.755 108.7 187.855 104.5C191.055 100.2 194.305 93.9 197.605 85.6C197.705 83.4 197.805 81.1 197.905 78.7C198.005 76.2 198.105 74.4 198.205 73.3C198.305 72.1 198.355 71.25 198.355 70.75C198.455 70.25 199.855 68.9 202.555 66.7C205.255 64.4 207.305 63.25 208.705 63.25C210.205 63.25 210.955 65.15 210.955 68.95C210.955 69.95 210.655 71.9 210.055 74.8C209.555 77.7 208.955 79.8 208.255 81.1C207.455 88.2 206.905 94.4 206.605 99.7C216.405 87.3 221.605 80.75 222.205 80.05C222.905 79.35 223.505 79 224.005 79C225.005 79 225.505 79.5 225.505 80.5C225.505 81.1 225.305 81.75 224.905 82.45C221.705 87.15 215.405 95.4 206.005 107.2C205.405 119.1 205.005 127.2 204.805 131.5C204.305 144.2 202.505 153.1 199.405 158.2C196.405 163.4 191.005 166 183.205 166C179.805 166 176.605 164.95 173.605 162.85C170.705 160.85 169.255 157.3 169.255 152.2C169.255 147.2 171.155 142.05 174.955 136.75C178.855 131.45 185.905 123.3 196.105 112.3L197.005 95.95C193.605 103.45 190.255 109.15 186.955 113.05C183.655 116.85 180.005 118.75 176.005 118.75C172.005 118.75 169.455 117.75 168.355 115.75C167.255 113.75 166.705 110.15 166.705 104.95ZM195.655 119.35C184.255 131.65 178.555 141.5 178.555 148.9C178.555 152.3 179.155 155.1 180.355 157.3C181.555 159.5 183.205 160.6 185.305 160.6C188.505 160.6 190.755 158.85 192.055 155.35C193.355 151.85 194.305 144.75 194.905 134.05L195.655 119.35ZM253.679 71.35C254.779 70.05 256.529 68.4 258.929 66.4C261.329 64.3 263.229 63.25 264.629 63.25C266.029 63.25 266.729 65.25 266.729 69.25C266.729 73.15 265.679 77 263.579 80.8C263.179 82.6 262.879 85.2 262.679 88.6C265.579 80.7 268.479 74.75 271.379 70.75C274.279 66.75 277.779 64.75 281.879 64.75C286.079 64.75 289.729 66.65 292.829 70.45C295.929 74.15 297.479 80.05 297.479 88.15C297.479 96.15 295.179 103.25 290.579 109.45C286.079 115.65 280.129 118.75 272.729 118.75C268.929 118.75 265.079 117.35 261.179 114.55C261.179 133.65 260.079 148.2 257.879 158.2C257.679 159.1 256.329 160.6 253.829 162.7C251.429 164.9 249.679 166 248.579 166C247.379 166 246.529 165.2 246.029 163.6C245.529 162 245.279 160.5 245.279 159.1C245.279 148.8 247.379 135.55 251.579 119.35C252.279 109.95 252.729 99.65 252.929 88.45C253.229 77.25 253.479 71.55 253.679 71.35ZM273.629 113.35C276.529 113.35 279.529 111.35 282.629 107.35C285.729 103.25 287.279 98.25 287.279 92.35C287.279 86.35 286.429 81.6 284.729 78.1C283.129 74.5 280.929 72.7 278.129 72.7C273.329 72.7 267.879 82.65 261.779 102.55C261.579 105.35 261.479 107.55 261.479 109.15C264.279 111.95 268.329 113.35 273.629 113.35ZM316.132 78.85L324.382 77.95C325.182 77.95 325.882 78.4 326.482 79.3C327.082 80.2 327.382 81.15 327.382 82.15C327.382 83.15 327.032 86.55 326.332 92.35C325.732 98.15 325.432 102.75 325.432 106.15C325.432 109.45 325.732 111.1 326.332 111.1C328.032 111 330.382 108.9 333.382 104.8C336.382 100.6 339.332 95.25 342.232 88.75C345.232 82.25 347.032 79 347.632 79C348.332 79 348.682 79.4 348.682 80.2C348.682 83 347.232 87.45 344.332 93.55C336.432 110.35 329.782 118.75 324.382 118.75C320.482 118.75 317.532 117.95 315.532 116.35C314.832 115.65 314.482 111.3 314.482 103.3C314.482 95.3 315.332 88.45 317.032 82.75C311.232 82.75 307.182 80.9 304.882 77.2C303.682 75.3 303.082 73.15 303.082 70.75C303.082 68.35 303.582 66.25 304.582 64.45C305.582 62.65 306.982 61.75 308.782 61.75C310.682 61.75 312.382 62.75 313.882 64.75C315.482 66.65 316.282 68.8 316.282 71.2C316.282 73.6 315.582 76 314.182 78.4C314.582 78.7 315.232 78.85 316.132 78.85ZM388.264 85.45C392.264 84.15 395.014 83.05 396.514 82.15C398.114 81.15 399.314 80.4 400.114 79.9L401.914 78.85C402.414 78.55 402.814 78.4 403.114 78.4C403.914 78.4 404.314 78.85 404.314 79.75C404.314 80.65 402.764 82.25 399.664 84.55C396.564 86.75 392.714 88.75 388.114 90.55C387.414 98.95 384.764 105.75 380.164 110.95C375.564 116.15 369.014 118.75 360.514 118.75C354.314 118.75 349.564 116.3 346.264 111.4C342.964 106.4 341.314 100.6 341.314 94C341.314 87.3 343.264 81 347.164 75.1C351.164 69.2 356.264 66.25 362.464 66.25C365.264 64.25 368.564 63.25 372.364 63.25C376.264 63.25 379.864 65.3 383.164 69.4C386.464 73.5 388.164 78.85 388.264 85.45ZM378.514 93.1L373.114 93.4C368.514 93.4 364.614 92.05 361.414 89.35C358.214 86.55 356.614 83.5 356.614 80.2C356.614 76.9 357.164 74.05 358.264 71.65C353.964 75.05 351.814 81.75 351.814 91.75C351.814 96.55 352.814 101.15 354.814 105.55C356.814 109.85 359.964 112 364.264 112C368.564 112 371.914 110.2 374.314 106.6C376.714 102.9 378.114 98.4 378.514 93.1ZM369.214 68.2C367.614 68.2 366.364 68.95 365.464 70.45C364.564 71.85 364.114 73.4 364.114 75.1C364.114 78.8 365.364 81.8 367.864 84.1C370.464 86.4 373.464 87.55 376.864 87.55H378.664C378.464 82.65 377.614 78.2 376.114 74.2C374.714 70.2 372.414 68.2 369.214 68.2ZM398.353 112.3C399.653 86.1 400.353 72.5 400.453 71.5C400.653 70.5 402.103 68.9 404.803 66.7C407.503 64.4 409.553 63.25 410.953 63.25C412.453 63.25 413.203 65.4 413.203 69.7C413.203 74 412.303 77.8 410.503 81.1C409.603 88.7 409.053 94.9 408.853 99.7C418.653 87.3 423.853 80.75 424.453 80.05C425.153 79.35 425.753 79 426.253 79C427.253 79 427.753 79.5 427.753 80.5C427.753 81.1 427.553 81.75 427.153 82.45C423.953 87.15 417.653 95.4 408.253 107.2C407.653 119.1 407.253 127.2 407.053 131.5C406.553 144.2 404.753 153.1 401.653 158.2C398.653 163.4 393.253 166 385.453 166C382.053 166 378.903 164.95 376.003 162.85C373.003 160.85 371.503 157.65 371.503 153.25C371.503 148.95 372.553 144.8 374.653 140.8C376.653 136.8 378.803 133.5 381.103 130.9C383.303 128.3 386.403 124.95 390.403 120.85C394.303 116.75 396.953 113.9 398.353 112.3ZM397.903 119.35C386.503 131.65 380.803 141.5 380.803 148.9C380.803 152.3 381.403 155.1 382.603 157.3C383.803 159.5 385.453 160.6 387.553 160.6C390.753 160.6 393.003 158.85 394.303 155.35C395.603 151.85 396.553 144.75 397.153 134.05L397.903 119.35ZM403.003 44.65C403.003 42.85 403.953 41.3 405.853 40C407.753 38.7 409.453 38.05 410.953 38.05C413.653 38.05 415.003 39.6 415.003 42.7C415.003 45.8 414.203 48.5 412.603 50.8C411.003 53 408.753 54.1 405.853 54.1C403.953 54.1 403.003 50.95 403.003 44.65ZM439.448 118.75C433.848 118.75 429.398 116.65 426.098 112.45C422.798 108.15 421.148 103.3 421.148 97.9C421.148 87 423.448 78.75 428.048 73.15C432.648 67.55 438.598 64.75 445.898 64.75C449.298 64.75 452.098 65.7 454.298 67.6C456.498 69.4 457.598 71.9 457.598 75.1C457.598 81.1 455.048 86.15 449.948 90.25C444.948 94.25 438.798 96.35 431.498 96.55C431.898 100.45 433.198 103.85 435.398 106.75C437.698 109.55 440.348 110.95 443.348 110.95C446.348 110.95 449.048 110.25 451.448 108.85C453.848 107.45 456.048 105.45 458.048 102.85C462.248 97.35 465.848 91.1 468.848 84.1C469.648 82.3 470.248 81 470.648 80.2C471.148 79.4 471.648 79 472.148 79C472.748 79 473.048 79.4 473.048 80.2C473.048 85.2 469.998 92.7 463.898 102.7C457.298 113.4 449.148 118.75 439.448 118.75ZM431.498 92.95C437.398 91.95 441.698 90.05 444.398 87.25C447.198 84.45 448.598 80.8 448.598 76.3C448.598 71.8 447.148 69.55 444.248 69.55C440.748 69.55 437.798 72 435.398 76.9C432.998 81.7 431.698 87.05 431.498 92.95ZM491.944 81.55L493.144 73.9C493.144 72.8 492.794 71.8 492.094 70.9C491.394 70 490.494 69.55 489.394 69.55C485.694 69.55 482.494 72.35 479.794 77.95C477.094 83.45 475.744 88.75 475.744 93.85C475.744 98.95 476.794 103.1 478.894 106.3C480.994 109.4 483.544 110.95 486.544 110.95C489.644 110.95 492.394 110.25 494.794 108.85C497.194 107.45 499.394 105.45 501.394 102.85C505.594 97.35 509.194 91.1 512.194 84.1C512.994 82.3 513.594 81 513.994 80.2C514.494 79.4 514.994 79 515.494 79C516.094 79 516.394 79.4 516.394 80.2C516.394 83.5 515.244 87.45 512.944 92.05C510.644 96.65 508.694 100.2 507.094 102.7C505.594 105.1 503.644 107.65 501.244 110.35C496.244 115.95 489.994 118.75 482.494 118.75C476.794 118.75 472.444 116.75 469.444 112.75C466.544 108.65 465.094 104.3 465.094 99.7C465.094 88.3 467.544 79.65 472.444 73.75C477.444 67.75 483.744 64.75 491.344 64.75C494.544 64.75 497.044 65.6 498.844 67.3C500.744 68.9 501.694 70.75 501.694 72.85C501.694 76.75 500.994 79.65 499.594 81.55C498.194 83.45 496.494 84.4 494.494 84.4C492.794 84.4 491.944 83.45 491.944 81.55ZM541.614 93.55C533.714 110.35 527.014 118.75 521.514 118.75C516.114 118.75 512.914 118.1 511.914 116.8C511.014 115.5 510.564 111.2 510.564 103.9C510.564 96.6 511.264 86.05 512.664 72.25C507.664 71.25 505.014 69.2 504.714 66.1C504.714 64.5 505.764 63.7 507.864 63.7C509.964 63.7 511.814 64.1 513.414 64.9C514.314 57.7 515.364 50.4 516.564 43C516.864 41.1 517.814 39.3 519.414 37.6C521.014 35.9 522.564 35.05 524.064 35.05C525.364 35.05 526.014 37.1 526.014 41.2C526.014 43.1 525.314 51.85 523.914 67.45C526.614 66.95 529.564 65.95 532.764 64.45C536.064 62.95 538.014 62.2 538.614 62.2C540.414 62.2 541.314 62.75 541.314 63.85C541.414 64.85 539.564 66.25 535.764 68.05C531.964 69.75 527.864 71.05 523.464 71.95C522.264 86.55 521.664 97.6 521.664 105.1C521.664 109.1 522.264 111.1 523.464 111.1C525.264 111 527.664 108.9 530.664 104.8C533.664 100.7 536.614 95.4 539.514 88.9C542.514 82.3 544.314 79 544.914 79C545.614 79 545.964 79.4 545.964 80.2C545.964 83 544.514 87.45 541.614 93.55ZM560.389 72.1L560.689 69.85C560.689 68.05 559.639 67.15 557.539 67.15C555.539 67.15 553.589 68.5 551.689 71.2C549.789 73.8 548.839 75.95 548.839 77.65C548.839 79.35 548.939 80.7 549.139 81.7C549.339 82.7 549.539 83.55 549.739 84.25C550.039 84.85 550.489 85.6 551.089 86.5C551.689 87.4 552.139 88.05 552.439 88.45L554.089 90.55C554.789 91.55 555.289 92.2 555.589 92.5C560.789 88.2 566.989 83.4 574.189 78.1C574.589 77.8 575.039 77.65 575.539 77.65C576.539 77.65 577.039 78.2 577.039 79.3C577.039 80.4 576.589 81.25 575.689 81.85C569.289 85.95 563.239 90.4 557.539 95.2C559.739 98.4 560.839 101.9 560.839 105.7C560.839 109.5 559.389 112.75 556.489 115.45C553.589 118.15 549.889 119.5 545.389 119.5C540.889 119.5 538.639 117.35 538.639 113.05C538.639 109.95 541.939 105.2 548.539 98.8C548.039 98.2 547.139 97.25 545.839 95.95C544.539 94.55 543.539 93.45 542.839 92.65C542.239 91.85 541.489 90.8 540.589 89.5C538.989 87 538.189 84.3 538.189 81.4C538.189 75.5 540.089 70.75 543.889 67.15C547.689 63.45 551.739 61.6 556.039 61.6C558.739 61.6 560.839 62.35 562.339 63.85C563.839 65.25 564.589 66.7 564.589 68.2C564.589 71.6 563.789 73.3 562.189 73.3C560.989 73.3 560.389 72.9 560.389 72.1ZM550.789 101.65C546.789 105.65 544.789 108.9 544.789 111.4C544.789 113.8 546.039 115 548.539 115C550.039 115 551.289 114.4 552.289 113.2C554.489 110.2 553.989 106.35 550.789 101.65Z" fill="#4C4C4E" fill-opacity="0.15"/>
<path d="M45.9 151.1C41.9 152.1 38.1 152.6 34.5 152.6C28.2333 152.6 22.7667 151.133 18.1 148.2C13.5 145.267 9.93333 141.1 7.4 135.7C4.93333 130.367 3.7 124.133 3.7 117C3.7 108 5.56667 98.6333 9.3 88.9L28.7 96.5C26.0333 104.233 24.7 110.333 24.7 114.8C24.7 118.6 25.6 121.367 27.4 123.1C29.2667 124.9 31.9667 125.8 35.5 125.8C37.7 125.8 40.4333 125.433 43.7 124.7C47.2333 123.9 49.8667 123.133 51.6 122.4C53.4 121.667 54.6333 120.867 55.3 120C55.9667 119.067 56.3 117.833 56.3 116.3C56.3 115.233 56.2 114 56 112.6L51.6 82.9L71.8 79.8L72.6 85.5C72.7333 86.1667 72.8667 86.8667 73 87.6C73.1333 88.2667 73.2667 88.9667 73.4 89.7C73.6 91.5667 73.8333 93 74.1 94C74.3 95.1333 74.6333 95.9333 75.1 96.4C75.5667 96.8 76.3 97 77.3 97H81.5L83 110L81.5 123H77.4C77.3333 128.467 76 133 73.4 136.6C70.8667 140.2 67.3333 143.1 62.8 145.3C58.3333 147.5 52.7 149.433 45.9 151.1ZM27.5 69.8H44.7V87H27.5V69.8ZM80.5547 97H82.2547C84.388 97 86.0547 96.7333 87.2547 96.2C88.5214 95.6 89.588 94.5 90.4547 92.9L98.4547 77.1C100.588 72.9667 103.555 69.8 107.355 67.6C111.221 65.4 115.388 64.3 119.855 64.3C123.988 64.3 127.788 65.2 131.255 67C135.588 69.2 138.955 72.4667 141.355 76.8C143.821 81.0667 145.055 85.9333 145.055 91.4C145.055 97.4 143.521 103.567 140.455 109.9C138.455 113.967 135.821 117.267 132.555 119.8C129.355 122.333 125.755 123.6 121.755 123.6C118.621 123.6 115.455 122.8 112.255 121.2L99.8547 114.9C94.788 120.3 89.088 123 82.7547 123H80.5547V97ZM123.455 100L125.155 96.5C125.888 95.1 126.255 93.7333 126.255 92.4C126.255 90 125.188 88.2667 123.055 87.2C122.188 86.7333 121.221 86.5 120.155 86.5C117.755 86.5 115.821 87.8667 114.355 90.6L112.255 94.5L123.455 100ZM214.455 151.1C210.188 152.033 206.321 152.5 202.855 152.5C196.388 152.5 190.821 151.067 186.155 148.2C181.488 145.4 177.955 141.433 175.555 136.3C173.155 131.167 171.955 125.133 171.955 118.2C171.955 109.133 173.955 99.3667 177.955 88.9L197.255 96.5C194.655 104.3 193.355 110.467 193.355 115C193.355 118.8 194.255 121.6 196.055 123.4C197.921 125.2 200.755 126.1 204.555 126.1C205.421 126.1 206.988 125.967 209.255 125.7L229.555 123.4C229.355 123.267 228.921 123.1 228.255 122.9C227.655 122.7 226.888 122.433 225.955 122.1C220.021 120.833 215.255 119.4 211.655 117.8C208.121 116.2 205.488 114.2 203.755 111.8C202.021 109.4 201.155 106.433 201.155 102.9C201.155 99.8333 201.688 96.4667 202.755 92.8C204.155 87.7333 206.288 83.2 209.155 79.2C212.088 75.1333 215.555 71.9667 219.555 69.7C223.555 67.3667 227.788 66.2 232.255 66.2C234.721 66.2 237.088 66.5333 239.355 67.2L246.955 69.3L241.755 90.6L235.755 88.9C234.355 88.5 233.088 88.3 231.955 88.3C229.155 88.3 226.988 89.2333 225.455 91.1C223.921 92.9 222.688 95.1667 221.755 97.9C222.555 98.5667 223.421 99.1333 224.355 99.6C225.288 100 226.688 100.533 228.555 101.2C233.288 102.8 236.821 104.167 239.155 105.3C241.488 106.433 243.355 107.933 244.755 109.8C246.221 111.667 247.155 114.233 247.555 117.5C247.755 119.5 247.855 121.333 247.855 123C247.855 129.067 246.588 133.833 244.055 137.3C241.588 140.833 238.055 143.567 233.455 145.5C228.855 147.433 222.521 149.3 214.455 151.1ZM282.96 123C276.96 123 272.127 122.033 268.46 120.1C264.793 118.1 262.06 115.033 260.26 110.9C258.527 106.767 257.527 101.333 257.26 94.6L255.36 44.6L277.86 43.5L279.76 91.9C279.893 94.1 280.16 95.5 280.56 96.1C280.96 96.7 281.96 97 283.56 97H286.16L287.66 110L286.16 123H282.96ZM285.34 97H292.54C290.873 93.4667 290.04 89.8333 290.04 86.1C290.04 81.8333 291.107 77.7333 293.24 73.8C296.107 68.6 300.24 64.9333 305.64 62.8L310.04 53.8L349.34 75.8C353.807 78.2667 357.273 81.6 359.74 85.8C362.207 90 363.44 94.4333 363.44 99.1C363.44 103.167 362.44 107.067 360.44 110.8C358.173 115 355.14 118.3 351.34 120.7C347.54 123.033 343.473 124.2 339.14 124.2C335.007 124.2 330.873 123.1 326.74 120.9L318.94 116.7C312.007 120.9 303.64 123 293.84 123H285.34V97ZM309.84 83.7C309.373 84.5667 309.14 85.4333 309.14 86.3C309.14 88.1667 310.14 89.6667 312.14 90.8L317.14 93.6L319.04 90.4C319.84 89 320.24 87.7 320.24 86.5C320.24 84.5 319.273 82.9333 317.34 81.8C316.407 81.2667 315.507 81 314.64 81C313.64 81 312.707 81.2667 311.84 81.8C310.973 82.2667 310.307 82.9 309.84 83.7ZM336.24 104C337.173 104.467 338.04 104.7 338.84 104.7C339.84 104.7 340.773 104.467 341.64 104C342.507 103.467 343.173 102.767 343.64 101.9C344.04 101.1 344.24 100.3 344.24 99.5C344.24 98.5 343.973 97.5667 343.44 96.7C342.907 95.7667 342.173 95.0667 341.24 94.6L338.14 92.9C337.407 95.1667 336.64 96.9667 335.84 98.3C334.773 100.167 333.94 101.533 333.34 102.4L336.24 104ZM414.726 123.3C409.926 123.3 405.659 122.167 401.926 119.9C398.192 117.633 395.292 114.533 393.226 110.6C391.159 106.667 390.126 102.233 390.126 97.3C390.126 93.7 390.992 90.0333 392.726 86.3C394.459 82.5 396.659 79.1 399.326 76.1L396.726 74L410.826 57.3L426.926 72C431.059 75.8 434.159 79.7333 436.226 83.8C438.359 87.8667 439.426 92.3667 439.426 97.3C439.426 102.167 438.359 106.6 436.226 110.6C434.159 114.533 431.226 117.633 427.426 119.9C423.692 122.167 419.459 123.3 414.726 123.3ZM409.126 97.2C409.126 98.5333 409.592 99.7 410.526 100.7C411.526 101.633 412.926 102.1 414.726 102.1C416.592 102.1 418.026 101.633 419.026 100.7C420.026 99.7 420.526 98.5333 420.526 97.2C420.526 95.8667 420.126 94.5667 419.326 93.3C418.592 91.9667 417.192 90.4667 415.126 88.8L414.426 88.2L413.826 88.8C411.959 90.6 410.692 92.1333 410.026 93.4C409.426 94.6 409.126 95.8667 409.126 97.2ZM442.711 127.4L453.311 124.5C456.444 123.567 458.544 122.7 459.611 121.9C460.678 121.1 461.211 119.833 461.211 118.1C461.211 117.233 461.111 116.2 460.911 115L456.311 82.5L476.511 79.5L479.811 103.4L480.311 107L481.611 116.3C481.944 119.5 482.111 122.133 482.111 124.2C482.111 129.2 481.311 133.3 479.711 136.5C478.178 139.7 475.744 142.333 472.411 144.4C469.144 146.533 464.711 148.367 459.111 149.9L448.511 152.8L442.711 127.4ZM446.511 54.4H455.911L455.811 43.3H470.511L470.411 54.4H479.611L479.711 71.1H463.911H462.211H446.511V54.4ZM497.268 128C505.801 126.333 511.868 125.067 515.468 124.2C519.068 123.333 521.568 122.533 522.968 121.8C524.368 121 525.135 120 525.268 118.8C522.268 119.667 518.968 120.1 515.368 120.1C510.368 120.1 505.801 119.067 501.668 117C497.601 114.867 494.368 111.7 491.968 107.5C489.568 103.233 488.368 98.0333 488.368 91.9C488.368 86.2333 489.501 81.1333 491.768 76.6C494.101 72 497.301 68.4333 501.368 65.9C505.435 63.3 509.968 62 514.968 62C519.435 62 523.601 63.1 527.468 65.3C531.401 67.4333 534.668 70.6667 537.268 75C539.935 79.2667 541.635 84.4667 542.368 90.6L545.668 116.7C545.935 118.5 546.068 120.333 546.068 122.2C546.068 128.467 544.435 133.5 541.168 137.3C537.901 141.1 533.235 144.1 527.168 146.3C521.168 148.5 513.001 150.633 502.668 152.7L497.268 128ZM508.668 90.7C508.668 92.2333 509.135 93.5333 510.068 94.6C511.001 95.6667 512.401 96.2 514.268 96.2C516.735 96.2 519.368 96.0333 522.168 95.7L521.768 92.9C521.368 90.1667 520.501 88.0333 519.168 86.5C517.901 84.9667 516.368 84.2 514.568 84.2C512.901 84.2 511.501 84.8333 510.368 86.1C509.235 87.3 508.668 88.8333 508.668 90.7ZM547.877 127.4L558.477 124.5C561.611 123.567 563.711 122.7 564.777 121.9C565.844 121.1 566.377 119.833 566.377 118.1C566.377 117.233 566.277 116.2 566.077 115L561.477 82.5L581.677 79.5L582.977 88.6L583.777 93.9C584.044 95.0333 584.477 95.8333 585.077 96.3C585.677 96.7667 586.444 97 587.377 97H589.477L590.977 110L589.477 123H587.277C587.411 128.267 586.711 132.567 585.177 135.9C583.644 139.3 581.177 142.067 577.777 144.2C574.444 146.4 569.944 148.3 564.277 149.9L553.677 152.8L547.877 127.4ZM588.458 97H611.158C612.558 97 613.591 96.8 614.258 96.4C614.924 96 615.258 95.3333 615.258 94.4C615.258 94.1333 615.124 93.4 614.858 92.2L610.558 76.3L630.158 70.5L635.058 88.9C635.858 91.9667 636.258 94.9667 636.258 97.9C636.258 102.633 635.224 106.933 633.158 110.8C631.158 114.6 628.258 117.6 624.458 119.8C620.724 121.933 616.391 123 611.458 123H588.458V97ZM595.358 129.9H611.058H612.758H628.458V146.5H619.258L619.358 157.6H604.658L604.758 146.5H595.358V129.9Z" fill="#4C4C4E"/>
</svg>
