<svg width="594" height="166" viewBox="0 0 594 166" fill="none" xmlns="http://www.w3.org/2000/svg">
<path d="M76.65 86.65C76.65 102.95 77.55 111.1 79.35 111.1C81.15 111.1 83.55 109.05 86.55 104.95C89.65 100.75 92.65 95.4 95.55 88.9C98.55 82.3 100.35 79 100.95 79C101.65 79 102 79.4 102 80.2C102 83 100.3 88.1 96.9 95.5C89.6 111 83.05 118.75 77.25 118.75C75.05 118.75 73.05 118.5 71.25 118C69.45 117.4 68.35 116.85 67.95 116.35C66.95 115.15 66.45 110.75 66.45 103.15C66.45 85.15 67.05 70.55 68.25 59.35C62.45 65.05 57.15 71.55 52.35 78.85C54.45 86.85 55.5 93.8 55.5 99.7C55.5 105.5 54.35 110 52.05 113.2C49.85 116.4 47.05 118 43.65 118C39.55 118 37.5 114.05 37.5 106.15C37.5 100.75 39.65 93.6 43.95 84.7C41.95 77.7 39.05 70.85 35.25 64.15C33.65 73.25 31.2 82.55 27.9 92.05C24.6 101.55 21.2 108.65 17.7 113.35C14.2 117.95 10.05 120.25 5.25 120.25C1.75 120.25 0 118.9 0 116.2C0 114 0.75 112.45 2.25 111.55C3.75 110.65 5.5 110 7.5 109.6C9.6 109.1 10.95 108.55 11.55 107.95C15.45 103.85 19.1 96.85 22.5 86.95C26 77.05 28.55 66.9 30.15 56.5C25.85 50.9 23.7 46.75 23.7 44.05C23.7 41.25 24.4 38.8 25.8 36.7C27.3 34.6 29.7 33.55 33 33.55C34 33.55 34.85 34.85 35.55 37.45C36.25 39.95 36.6 42.6 36.6 45.4C42.7 54.3 47.35 63.5 50.55 73C56.15 63.8 62.55 55.3 69.75 47.5C72.85 28.6 76.45 19.15 80.55 19.15C81.95 19.15 83.4 20.2 84.9 22.3C86.5 24.4 87.3 26.55 87.3 28.75C87.3 35.55 84.35 42.45 78.45 49.45C77.25 57.95 76.65 70.35 76.65 86.65ZM45.45 91.15C43.05 96.45 41.85 101.2 41.85 105.4C41.85 109.5 42.35 111.55 43.35 111.55C44.35 111.55 45.1 110.35 45.6 107.95C46.1 105.45 46.35 102.85 46.35 100.15C46.35 97.45 46.05 94.45 45.45 91.15ZM114.655 40.45C114.655 39.05 114.305 38.35 113.605 38.35C112.005 38.35 110.155 39.55 108.055 41.95C106.055 44.25 104.705 47.85 104.005 52.75C103.905 53.85 103.455 54.85 102.655 55.75C101.955 56.55 101.205 56.95 100.405 56.95C99.2051 56.95 98.6051 55.95 98.6051 53.95C98.6051 51.95 99.6051 49.15 101.605 45.55C103.605 41.85 106.205 38.5 109.405 35.5C112.705 32.5 115.905 31 119.005 31C122.605 31 124.355 33.9 124.255 39.7C124.255 45.4 123.655 53.75 122.455 64.75C121.255 75.75 120.655 84 120.655 89.5C120.655 103.5 123.255 110.5 128.455 110.5C132.255 110.5 136.655 106.95 141.655 99.85C146.755 92.75 150.605 85.5 153.205 78.1C155.205 56.3 156.755 42.25 157.855 35.95C158.055 35.05 159.605 33.5 162.505 31.3C165.405 29.1 167.605 28 169.105 28C170.705 28 171.505 30.35 171.505 35.05C171.505 40.55 171.005 45.3 170.005 49.3C167.305 59.6 165.605 66.15 164.905 68.95C163.705 76.95 162.855 88.3 162.355 103C166.755 100.7 170.555 99.55 173.755 99.55C174.955 99.55 175.555 100 175.555 100.9C175.555 101.7 174.955 102.35 173.755 102.85C169.655 104.15 165.755 106 162.055 108.4C162.055 130.7 160.505 145.85 157.405 153.85C154.405 161.95 147.905 166 137.905 166C126.905 166 121.405 161.35 121.405 152.05C121.405 145.15 124.055 138.05 129.355 130.75C134.755 123.55 141.955 116.75 150.955 110.35C151.255 104.05 151.655 97.3 152.155 90.1C148.155 98 143.655 104.75 138.655 110.35C133.755 115.95 129.055 118.75 124.555 118.75C120.155 118.75 116.655 116.55 114.055 112.15C111.455 107.65 110.155 101.65 110.155 94.15C110.155 86.55 110.905 77.1 112.405 65.8C113.905 54.4 114.655 45.95 114.655 40.45ZM150.505 116.65C144.805 120.85 140.205 125.85 136.705 131.65C133.305 137.55 131.605 142.7 131.605 147.1C131.605 151.6 132.455 154.95 134.155 157.15C135.855 159.45 137.805 160.6 140.005 160.6C143.105 160.6 145.455 157.25 147.055 150.55C148.755 143.95 149.905 132.65 150.505 116.65ZM255.321 49.15L256.071 45.25C255.671 39.85 252.021 37.15 245.121 37.15C241.121 37.15 237.621 38.6 234.621 41.5C231.721 44.3 230.271 47.3 230.271 50.5C230.271 53.6 231.571 56.35 234.171 58.75C236.871 61.05 240.071 63.15 243.771 65.05C247.571 66.85 251.321 68.85 255.021 71.05C258.821 73.15 262.021 75.9 264.621 79.3C267.321 82.7 268.671 86.55 268.671 90.85C268.671 99.75 265.171 106.75 258.171 111.85C251.171 116.95 243.621 119.5 235.521 119.5C227.421 119.5 220.671 118.05 215.271 115.15C209.871 112.15 207.171 107.65 207.171 101.65C207.171 98.45 208.271 95.55 210.471 92.95C212.671 90.35 215.821 89.05 219.921 89.05C221.521 89.05 222.971 89.5 224.271 90.4C225.571 91.3 226.371 92.5 226.671 94C226.671 95.5 225.771 96.25 223.971 96.25C220.571 96.25 218.871 97.7 218.871 100.6C218.971 103.9 220.521 106.9 223.521 109.6C226.621 112.3 230.921 113.65 236.421 113.65C242.021 113.65 246.771 111.75 250.671 107.95C254.671 104.15 256.671 99.55 256.671 94.15C256.671 90.55 255.321 87.3 252.621 84.4C249.921 81.5 246.671 79.05 242.871 77.05C239.071 74.95 235.221 72.85 231.321 70.75C227.521 68.65 224.271 66.1 221.571 63.1C218.871 60.1 217.521 56.7 217.521 52.9C217.521 46.2 220.371 40.85 226.071 36.85C231.871 32.85 238.421 30.85 245.721 30.85C250.621 30.85 255.071 31.85 259.071 33.85C263.071 35.85 265.121 38.9 265.221 43C265.221 45.4 264.621 47.4 263.421 49C262.221 50.6 260.571 51.4 258.471 51.4C256.471 51.4 255.421 50.65 255.321 49.15ZM323.198 69.1V43.6C321.298 43.2 318.548 42.6 314.948 41.8C311.348 40.9 308.598 40.25 306.698 39.85C300.998 38.65 296.498 38.05 293.198 38.05C286.898 38.05 283.748 39.8 283.748 43.3C283.748 47.2 285.048 50.5 287.648 53.2C290.348 55.9 292.748 57.25 294.848 57.25C296.948 57.25 298.798 56.7 300.398 55.6C302.098 54.5 303.598 53.95 304.898 53.95C306.598 53.95 307.448 54.85 307.448 56.65C307.448 58.35 306.648 59.75 305.048 60.85C303.548 61.95 301.148 62.5 297.848 62.5C292.548 62.5 288.048 60.2 284.348 55.6C280.648 51 278.798 46.3 278.798 41.5C278.798 36.7 279.898 33.1 282.098 30.7C284.298 28.3 287.048 27.1 290.348 27.1C297.948 27.1 309.248 29.5 324.248 34.3C325.448 28 327.698 24.85 330.998 24.85C332.498 24.85 333.248 28.95 333.248 37.15C342.948 40.15 351.298 41.65 358.298 41.65C362.798 41.65 366.748 40.2 370.148 37.3C371.148 36.5 371.998 36.1 372.698 36.1C373.498 36.1 373.898 36.45 373.898 37.15C373.898 39.85 371.898 42.3 367.898 44.5C363.898 46.6 359.098 47.65 353.498 47.65C347.898 47.65 341.148 46.95 333.248 45.55C333.448 59.35 333.548 68.85 333.548 74.05C333.548 79.25 333.348 83.7 332.948 87.4C332.648 91.1 331.898 95 330.698 99.1C329.498 103.1 327.898 106.5 325.898 109.3C323.998 112 321.298 114.25 317.798 116.05C314.398 117.85 310.398 118.75 305.798 118.75C301.298 118.75 297.198 117.7 293.498 115.6C289.898 113.5 288.098 110.25 288.098 105.85C288.098 103.15 288.798 100.95 290.198 99.25C291.598 97.45 293.448 96.55 295.748 96.55C298.148 96.55 299.348 97.1 299.348 98.2C299.348 98.7 299.048 99.7 298.448 101.2C297.848 102.6 297.548 104.05 297.548 105.55C297.548 106.95 298.448 108.5 300.248 110.2C302.148 111.9 304.848 112.75 308.348 112.75C318.248 112.75 323.198 98.2 323.198 69.1ZM343.287 84.55C343.287 77.85 344.537 71.25 347.037 64.75C349.637 58.15 353.337 52.7 358.137 48.4C359.337 41.9 362.437 36.65 367.437 32.65C372.537 28.55 379.787 26.5 389.187 26.5C398.587 26.5 406.087 30.2 411.687 37.6C417.387 44.9 420.237 54.45 420.237 66.25C420.237 73.95 419.087 81.25 416.787 88.15C421.387 86.55 425.537 84.55 429.237 82.15C433.037 79.65 434.987 78.4 435.087 78.4C436.187 78.4 436.737 79.05 436.737 80.35C436.737 81.45 434.337 83.6 429.537 86.8C424.737 89.9 419.787 92.1 414.687 93.4C410.987 101.5 405.737 107.9 398.937 112.6C392.137 117.2 383.887 119.5 374.187 119.5C364.587 119.5 357.037 116.3 351.537 109.9C346.037 103.4 343.287 94.95 343.287 84.55ZM406.587 89.95C407.887 85.45 408.537 80.45 408.537 74.95C408.537 63.15 406.287 53.15 401.787 44.95C397.387 36.75 391.087 32.65 382.887 32.65C379.387 32.65 375.887 33.65 372.387 35.65C368.987 37.55 366.537 40.15 365.037 43.45C370.237 40.55 375.487 39.1 380.787 39.1C386.187 39.1 388.887 39.85 388.887 41.35C388.887 42.25 388.537 42.95 387.837 43.45C387.137 43.95 386.437 44.2 385.737 44.2C377.137 44.2 369.837 47.1 363.837 52.9C364.637 63.1 369.087 71.85 377.187 79.15C385.387 86.35 395.187 89.95 406.587 89.95ZM379.887 111.85C391.887 111.85 400.237 106.2 404.937 94.9C392.937 94.9 382.487 91.75 373.587 85.45C364.787 79.15 359.587 70.9 357.987 60.7C355.187 66 353.787 71.95 353.787 78.55C353.787 87.65 356.287 95.5 361.287 102.1C366.387 108.6 372.587 111.85 379.887 111.85ZM510.677 124.45L515.627 123.25C517.227 123.25 518.027 124.05 518.027 125.65C517.927 128.25 516.577 130.55 513.977 132.55C511.477 134.65 508.627 135.7 505.427 135.7C502.227 135.7 499.677 134.15 497.777 131.05C495.077 126.55 492.527 118.5 490.127 106.9C489.027 101.3 487.727 96.7 486.227 93.1C483.527 94 480.677 94.45 477.677 94.45C474.677 94.45 472.027 93.85 469.727 92.65C467.527 91.35 466.427 89.8 466.427 88C466.627 83.4 470.327 81.1 477.527 81.1C481.027 81.1 484.777 82.65 488.777 85.75C494.977 81.05 498.077 74.5 498.077 66.1C498.077 61.1 497.127 56.7 495.227 52.9C493.327 49 490.827 45.95 487.727 43.75C481.627 39.45 474.827 37.3 467.327 37.3C467.127 39.5 466.777 43 466.277 47.8C465.277 57.8 464.677 65.55 464.477 71.05L464.027 94.75C464.027 112.95 460.427 122.05 453.227 122.05C448.627 122.05 446.327 120.1 446.327 116.2C446.327 115.2 446.977 113.5 448.277 111.1C449.677 108.7 450.677 105.95 451.277 102.85C451.877 99.65 452.527 90.4 453.227 75.1C453.927 59.7 454.877 47.6 456.077 38.8C450.777 40.3 446.427 42.6 443.027 45.7C439.727 48.8 438.077 52.45 438.077 56.65C438.077 59.05 437.527 61 436.427 62.5C435.327 63.9 433.977 64.6 432.377 64.6C429.477 64.6 428.027 63.05 428.027 59.95C428.027 52.95 430.827 47.2 436.427 42.7C442.127 38.1 449.127 34.8 457.427 32.8C459.427 26.1 462.227 22.75 465.827 22.75C467.227 22.75 467.927 24.35 467.927 27.55C467.927 28.25 467.827 29.5 467.627 31.3C468.727 31.1 470.827 31 473.927 31C477.027 31 480.527 31.45 484.427 32.35C488.327 33.25 492.227 34.8 496.127 37C500.127 39.1 503.327 42.35 505.727 46.75C508.127 51.05 509.327 56.1 509.327 61.9C509.327 67.7 507.827 73.1 504.827 78.1C501.827 83.1 497.927 87.1 493.127 90.1C496.527 94.3 499.177 99.45 501.077 105.55C503.077 111.65 504.927 116.3 506.627 119.5C508.327 122.8 509.677 124.45 510.677 124.45ZM472.577 86.2C472.577 87 473.277 87.7 474.677 88.3C476.077 88.9 477.527 89.2 479.027 89.2C480.627 89.2 482.077 88.95 483.377 88.45C481.377 86.15 479.077 85 476.477 85C473.877 85 472.577 85.4 472.577 86.2ZM532.575 40.45C532.575 39.05 532.225 38.35 531.525 38.35C529.925 38.35 528.075 39.55 525.975 41.95C523.975 44.25 522.625 47.85 521.925 52.75C521.825 53.85 521.375 54.85 520.575 55.75C519.875 56.55 519.125 56.95 518.325 56.95C517.125 56.95 516.525 55.95 516.525 53.95C516.525 51.95 517.525 49.15 519.525 45.55C521.525 41.85 524.125 38.5 527.325 35.5C530.625 32.5 533.825 31 536.925 31C540.525 31 542.275 33.9 542.175 39.7C542.175 45.4 541.575 53.75 540.375 64.75C539.175 75.75 538.575 84 538.575 89.5C538.575 103.5 541.175 110.5 546.375 110.5C550.175 110.5 554.575 106.95 559.575 99.85C564.675 92.75 568.525 85.5 571.125 78.1C573.125 56.3 574.675 42.25 575.775 35.95C575.975 35.05 577.525 33.5 580.425 31.3C583.325 29.1 585.525 28 587.025 28C588.625 28 589.425 30.35 589.425 35.05C589.425 40.55 588.925 45.3 587.925 49.3C585.225 59.6 583.525 66.15 582.825 68.95C581.625 76.95 580.775 88.3 580.275 103C584.675 100.7 588.475 99.55 591.675 99.55C592.875 99.55 593.475 100 593.475 100.9C593.475 101.7 592.875 102.35 591.675 102.85C587.575 104.15 583.675 106 579.975 108.4C579.975 130.7 578.425 145.85 575.325 153.85C572.325 161.95 565.825 166 555.825 166C544.825 166 539.325 161.35 539.325 152.05C539.325 145.15 541.975 138.05 547.275 130.75C552.675 123.55 559.875 116.75 568.875 110.35C569.175 104.05 569.575 97.3 570.075 90.1C566.075 98 561.575 104.75 556.575 110.35C551.675 115.95 546.975 118.75 542.475 118.75C538.075 118.75 534.575 116.55 531.975 112.15C529.375 107.65 528.075 101.65 528.075 94.15C528.075 86.55 528.825 77.1 530.325 65.8C531.825 54.4 532.575 45.95 532.575 40.45ZM568.425 116.65C562.725 120.85 558.125 125.85 554.625 131.65C551.225 137.55 549.525 142.7 549.525 147.1C549.525 151.6 550.375 154.95 552.075 157.15C553.775 159.45 555.725 160.6 557.925 160.6C561.025 160.6 563.375 157.25 564.975 150.55C566.675 143.95 567.825 132.65 568.425 116.65Z" fill="#4C4C4E" fill-opacity="0.15"/>
<path d="M85.9 151.1C81.9 152.1 78.1 152.6 74.5 152.6C68.2333 152.6 62.7667 151.133 58.1 148.2C53.5 145.267 49.9333 141.1 47.4 135.7C44.9333 130.367 43.7 124.133 43.7 117C43.7 108 45.5667 98.6333 49.3 88.9L68.7 96.5C66.0333 104.233 64.7 110.333 64.7 114.8C64.7 118.6 65.6 121.367 67.4 123.1C69.2667 124.9 71.9667 125.8 75.5 125.8C77.7 125.8 80.4333 125.433 83.7 124.7C87.2333 123.9 89.8667 123.133 91.6 122.4C93.4 121.667 94.6333 120.867 95.3 120C95.9667 119.067 96.3 117.833 96.3 116.3C96.3 115.233 96.2 114 96 112.6L91.6 82.9L111.8 79.8L112.6 85.5C112.733 86.1667 112.867 86.8667 113 87.6C113.133 88.2667 113.267 88.9667 113.4 89.7C113.6 91.5667 113.833 93 114.1 94C114.3 95.1333 114.633 95.9333 115.1 96.4C115.567 96.8 116.3 97 117.3 97H121.5L123 110L121.5 123H117.4C117.333 128.467 116 133 113.4 136.6C110.867 140.2 107.333 143.1 102.8 145.3C98.3333 147.5 92.7 149.433 85.9 151.1ZM67.5 69.8H84.7V87H67.5V69.8ZM120.555 97H122.255C124.388 97 126.055 96.7333 127.255 96.2C128.521 95.6 129.588 94.5 130.455 92.9L138.455 77.1C140.588 72.9667 143.555 69.8 147.355 67.6C151.221 65.4 155.388 64.3 159.855 64.3C163.988 64.3 167.788 65.2 171.255 67C175.588 69.2 178.955 72.4667 181.355 76.8C183.821 81.0667 185.055 85.9333 185.055 91.4C185.055 97.4 183.521 103.567 180.455 109.9C178.455 113.967 175.821 117.267 172.555 119.8C169.355 122.333 165.755 123.6 161.755 123.6C158.621 123.6 155.455 122.8 152.255 121.2L139.855 114.9C134.788 120.3 129.088 123 122.755 123H120.555V97ZM163.455 100L165.155 96.5C165.888 95.1 166.255 93.7333 166.255 92.4C166.255 90 165.188 88.2667 163.055 87.2C162.188 86.7333 161.221 86.5 160.155 86.5C157.755 86.5 155.821 87.8667 154.355 90.6L152.255 94.5L163.455 100ZM254.455 151.1C250.455 152.1 246.655 152.6 243.055 152.6C236.788 152.6 231.321 151.133 226.655 148.2C222.055 145.267 218.488 141.1 215.955 135.7C213.488 130.367 212.255 124.133 212.255 117C212.255 108 214.121 98.6333 217.855 88.9L237.255 96.5C234.588 104.233 233.255 110.333 233.255 114.8C233.255 118.6 234.155 121.367 235.955 123.1C237.821 124.9 240.521 125.8 244.055 125.8C246.255 125.8 248.988 125.433 252.255 124.7C255.788 123.9 258.421 123.133 260.155 122.4C261.955 121.667 263.188 120.867 263.855 120C264.521 119.067 264.855 117.833 264.855 116.3C264.855 115.233 264.755 114 264.555 112.6L260.155 82.9L280.355 79.8L285.555 116.2C285.821 118.133 285.955 120.167 285.955 122.3C285.955 127.9 284.688 132.533 282.155 136.2C279.621 139.933 276.088 142.9 271.555 145.1C267.088 147.367 261.388 149.367 254.455 151.1ZM236.055 69.8H253.255V87H236.055V69.8ZM320.421 123C314.421 123 309.588 122.033 305.921 120.1C302.254 118.1 299.521 115.033 297.721 110.9C295.988 106.767 294.988 101.333 294.721 94.6L292.821 44.6L315.321 43.5L317.221 91.9C317.354 94.1 317.621 95.5 318.021 96.1C318.421 96.7 319.421 97 321.021 97H323.621L325.121 110L323.621 123H320.421ZM322.801 97H339.601C341.067 97 342.001 96.8333 342.401 96.5C342.801 96.1 342.934 95.3 342.801 94.1L341.801 82.5L361.801 80.5L362.901 92.8C363.034 94.5333 363.067 95.8667 363.001 96.8C363.734 96.9333 365.267 97 367.601 97L369.101 109.9L367.601 123C361.867 123 357.101 121.467 353.301 118.4C349.501 121.467 345.201 123 340.401 123H322.801V97ZM323.501 54.2H355.801V70.5H323.501V54.2ZM426.848 123C421.515 123 417.015 121.433 413.348 118.3C409.348 121.433 404.548 123 398.948 123C394.015 123 389.648 121.367 385.848 118.1C381.848 121.367 377.248 123 372.048 123H366.648V97H371.248C372.915 97 374.048 96.7 374.648 96.1C375.315 95.5 375.648 94.4667 375.648 93V81.3H394.648V93.2C394.715 94.7333 395.015 95.8 395.548 96.4C396.082 97 397.215 97.3 398.948 97.3C400.882 97.3 402.115 97.0333 402.648 96.5C403.248 95.9667 403.548 94.8667 403.548 93.2V81.3H422.548V93.2C422.548 94.6667 422.848 95.7333 423.448 96.4C424.048 97 425.182 97.3 426.848 97.3C429.715 97.3 431.148 96.0333 431.148 93.5C431.148 92.5667 431.015 91.6 430.748 90.6L426.848 75.7L446.348 70.5L451.248 88.6C451.982 91.1333 452.348 93.8667 452.348 96.8C452.348 101.6 451.248 106 449.048 110C446.915 114 443.915 117.167 440.048 119.5C436.182 121.833 431.782 123 426.848 123ZM461.016 44.7L484.216 43.5L487.216 122.7L464.016 123.7L461.016 44.7ZM516.546 123C512.679 123 509.179 122.1 506.046 120.3C502.913 118.5 500.446 116.067 498.646 113C496.846 109.933 495.946 106.567 495.946 102.9V92.6H512.746V95.3C512.746 95.9667 512.846 96.4333 513.046 96.7C513.246 96.9 513.646 97 514.246 97H526.446C527.846 97 528.546 96.5333 528.546 95.6C528.546 95.0667 528.346 94.5 527.946 93.9C526.479 91.1667 524.446 87.8333 521.846 83.9C519.246 79.9 516.746 76.1667 514.346 72.7L512.446 69.9L528.446 56.9C532.846 62.7667 536.946 68.7667 540.746 74.9C544.613 80.9667 547.246 86.8667 548.646 92.6C549.246 95 549.546 97.3667 549.546 99.7C549.546 103.967 548.613 107.867 546.746 111.4C544.946 114.933 542.346 117.767 538.946 119.9C535.546 121.967 531.546 123 526.946 123H516.546Z" fill="#4C4C4E"/>
</svg>
