<svg width="541" height="166" viewBox="0 0 541 166" fill="none" xmlns="http://www.w3.org/2000/svg">
<path d="M113.5 93.25C114.2 92.25 115.2 90.5 116.5 88C119.7 82.3 121.6 79.45 122.2 79.45C122.9 79.45 123.25 79.85 123.25 80.65C123.25 85.55 120.7 91.75 115.6 99.25C106.4 112.75 94.15 119.5 78.85 119.5C74.55 119.5 70.6 118.5 67 116.5C63.4 114.5 60.55 111.95 58.45 108.85C54.15 102.55 52 95.95 52 89.05C52 71.65 56.5 57.65 65.5 47.05C74.6 36.35 85.35 31 97.75 31C102.45 31 106.3 32.4 109.3 35.2C112.3 37.9 113.8 41.35 113.8 45.55C113.8 49.75 112.75 53.65 110.65 57.25C108.55 60.85 106 62.65 103 62.65C100.1 62.65 98.65 61.85 98.65 60.25C98.65 58.45 99.6 56.4 101.5 54.1C103.5 51.8 104.5 49.5 104.5 47.2C104.5 40.1 100.7 36.55 93.1 36.55C85.6 36.55 78.8 41.6 72.7 51.7C66.6 61.8 63.55 72.2 63.55 82.9C63.55 90.3 65.65 96.9 69.85 102.7C74.05 108.4 79.95 111.25 87.55 111.25C96.55 111.25 105.2 105.25 113.5 93.25ZM132.116 118.75C126.516 118.75 122.066 116.65 118.766 112.45C115.466 108.15 113.816 103.3 113.816 97.9C113.816 87 116.116 78.75 120.716 73.15C125.316 67.55 131.266 64.75 138.566 64.75C141.966 64.75 144.766 65.7 146.966 67.6C149.166 69.4 150.266 71.9 150.266 75.1C150.266 81.1 147.716 86.15 142.616 90.25C137.616 94.25 131.466 96.35 124.166 96.55C124.566 100.45 125.866 103.85 128.066 106.75C130.366 109.55 133.016 110.95 136.016 110.95C139.016 110.95 141.716 110.25 144.116 108.85C146.516 107.45 148.716 105.45 150.716 102.85C154.916 97.35 158.516 91.1 161.516 84.1C162.316 82.3 162.916 81 163.316 80.2C163.816 79.4 164.316 79 164.816 79C165.416 79 165.716 79.4 165.716 80.2C165.716 85.2 162.666 92.7 156.566 102.7C149.966 113.4 141.816 118.75 132.116 118.75ZM124.166 92.95C130.066 91.95 134.366 90.05 137.066 87.25C139.866 84.45 141.266 80.8 141.266 76.3C141.266 71.8 139.816 69.55 136.916 69.55C133.416 69.55 130.466 72 128.066 76.9C125.666 81.7 124.366 87.05 124.166 92.95ZM170.812 78.85L179.062 77.95C179.862 77.95 180.562 78.4 181.162 79.3C181.762 80.2 182.062 81.15 182.062 82.15C182.062 83.15 181.712 86.55 181.012 92.35C180.412 98.15 180.112 102.75 180.112 106.15C180.112 109.45 180.412 111.1 181.012 111.1C182.712 111 185.062 108.9 188.062 104.8C191.062 100.6 194.012 95.25 196.912 88.75C199.912 82.25 201.712 79 202.312 79C203.012 79 203.362 79.4 203.362 80.2C203.362 83 201.912 87.45 199.012 93.55C191.112 110.35 184.462 118.75 179.062 118.75C175.162 118.75 172.212 117.95 170.212 116.35C169.512 115.65 169.162 111.3 169.162 103.3C169.162 95.3 170.012 88.45 171.712 82.75C165.912 82.75 161.862 80.9 159.562 77.2C158.362 75.3 157.762 73.15 157.762 70.75C157.762 68.35 158.262 66.25 159.262 64.45C160.262 62.65 161.662 61.75 163.462 61.75C165.362 61.75 167.062 62.75 168.562 64.75C170.162 66.65 170.962 68.8 170.962 71.2C170.962 73.6 170.262 76 168.862 78.4C169.262 78.7 169.912 78.85 170.812 78.85ZM229.594 93.55C221.694 110.35 214.994 118.75 209.494 118.75C204.094 118.75 200.894 118.1 199.894 116.8C198.994 115.5 198.544 111.2 198.544 103.9C198.544 96.6 199.244 86.05 200.644 72.25C195.644 71.25 192.994 69.2 192.694 66.1C192.694 64.5 193.744 63.7 195.844 63.7C197.944 63.7 199.794 64.1 201.394 64.9C202.294 57.7 203.344 50.4 204.544 43C204.844 41.1 205.794 39.3 207.394 37.6C208.994 35.9 210.544 35.05 212.044 35.05C213.344 35.05 213.994 37.1 213.994 41.2C213.994 43.1 213.294 51.85 211.894 67.45C214.594 66.95 217.544 65.95 220.744 64.45C224.044 62.95 225.994 62.2 226.594 62.2C228.394 62.2 229.294 62.75 229.294 63.85C229.394 64.85 227.544 66.25 223.744 68.05C219.944 69.75 215.844 71.05 211.444 71.95C210.244 86.55 209.644 97.6 209.644 105.1C209.644 109.1 210.244 111.1 211.444 111.1C213.244 111 215.644 108.9 218.644 104.8C221.644 100.7 224.594 95.4 227.494 88.9C230.494 82.3 232.294 79 232.894 79C233.594 79 233.944 79.4 233.944 80.2C233.944 83 232.494 87.45 229.594 93.55ZM231.72 44.65C231.72 42.85 232.67 41.3 234.57 40C236.47 38.7 238.17 38.05 239.67 38.05C242.37 38.05 243.72 39.6 243.72 42.7C243.72 45.8 242.92 48.5 241.32 50.8C239.72 53 237.47 54.1 234.57 54.1C232.67 54.1 231.72 50.95 231.72 44.65ZM236.07 118.75C232.17 118.75 229.22 117.95 227.22 116.35C226.52 115.65 226.17 113.15 226.17 108.85C226.17 104.55 226.47 97.4 227.07 87.4C227.77 77.3 228.37 71.85 228.87 71.05C229.37 70.25 230.92 68.75 233.52 66.55C236.12 64.35 238.12 63.25 239.52 63.25C241.02 63.25 241.77 65.15 241.77 68.95C241.77 69.95 241.47 71.9 240.87 74.8C240.37 77.7 239.77 79.8 239.07 81.1C237.77 84.4 237.12 93.05 237.12 107.05C237.12 109.75 237.42 111.1 238.02 111.1C239.72 111 242.07 108.9 245.07 104.8C248.07 100.6 251.02 95.25 253.92 88.75C256.92 82.25 258.72 79 259.32 79C260.02 79 260.37 79.4 260.37 80.2C260.37 83 258.92 87.45 256.02 93.55C248.12 110.35 241.47 118.75 236.07 118.75ZM274.741 86.35C280.141 85.05 284.641 83.4 288.241 81.4C291.941 79.4 293.891 78.4 294.091 78.4C294.691 78.4 294.991 78.9 294.991 79.9C294.991 80.9 293.991 82.15 291.991 83.65C287.791 86.75 282.541 89.4 276.241 91.6C278.841 101.5 280.141 112 280.141 123.1C280.141 132.4 279.091 141.3 276.991 149.8C275.791 154.6 273.891 158.5 271.291 161.5C268.791 164.5 265.691 166 261.991 166C258.791 166 256.591 164.6 255.391 161.8C253.891 158.5 253.041 155.35 252.841 152.35C252.541 147.65 252.391 140 252.391 129.4C252.391 118.8 253.191 106 254.791 91C251.191 88.4 249.391 85.25 249.391 81.55C249.391 77.75 250.191 74.85 251.791 72.85C253.391 70.75 255.391 69.4 257.791 68.8C259.191 60.1 260.541 52.6 261.841 46.3C263.241 40 265.341 34.9 268.141 31C270.941 27 273.741 25 276.541 25C279.741 25 281.341 28.55 281.341 35.65C281.341 46.85 277.191 59.45 268.891 73.45C270.991 76.45 272.941 80.75 274.741 86.35ZM264.241 93.85C263.341 106.15 262.891 120.25 262.891 136.15C262.891 152.15 263.741 160.15 265.441 160.15C268.441 160.15 270.941 156.2 272.941 148.3C274.941 140.5 275.941 131.7 275.941 121.9C275.941 112.2 274.841 102.45 272.641 92.65C269.641 93.45 266.841 93.85 264.241 93.85ZM266.491 71.35C269.391 66.55 272.041 60.9 274.441 54.4C276.841 47.8 278.041 42.3 278.041 37.9C278.041 33.5 277.591 31.3 276.691 31.3C275.091 31.3 273.341 34.95 271.441 42.25C269.641 49.55 267.991 59.25 266.491 71.35ZM266.491 77.35L265.591 78.85L264.841 86.5C266.141 86.9 267.291 87.1 268.291 87.1C269.391 87.1 270.291 87.05 270.991 86.95C269.691 83.05 268.191 79.85 266.491 77.35ZM257.191 72.55C255.691 73.05 254.941 74.2 254.941 76C254.941 77.8 255.341 79.35 256.141 80.65C256.541 77.05 256.891 74.35 257.191 72.55ZM291.925 44.65C291.925 42.85 292.875 41.3 294.775 40C296.675 38.7 298.375 38.05 299.875 38.05C302.575 38.05 303.925 39.6 303.925 42.7C303.925 45.8 303.125 48.5 301.525 50.8C299.925 53 297.675 54.1 294.775 54.1C292.875 54.1 291.925 50.95 291.925 44.65ZM296.275 118.75C292.375 118.75 289.425 117.95 287.425 116.35C286.725 115.65 286.375 113.15 286.375 108.85C286.375 104.55 286.675 97.4 287.275 87.4C287.975 77.3 288.575 71.85 289.075 71.05C289.575 70.25 291.125 68.75 293.725 66.55C296.325 64.35 298.325 63.25 299.725 63.25C301.225 63.25 301.975 65.15 301.975 68.95C301.975 69.95 301.675 71.9 301.075 74.8C300.575 77.7 299.975 79.8 299.275 81.1C297.975 84.4 297.325 93.05 297.325 107.05C297.325 109.75 297.625 111.1 298.225 111.1C299.925 111 302.275 108.9 305.275 104.8C308.275 100.6 311.225 95.25 314.125 88.75C317.125 82.25 318.925 79 319.525 79C320.225 79 320.575 79.4 320.575 80.2C320.575 83 319.125 87.45 316.225 93.55C308.325 110.35 301.675 118.75 296.275 118.75ZM339.446 81.55L340.646 73.9C340.646 72.8 340.296 71.8 339.596 70.9C338.896 70 337.996 69.55 336.896 69.55C333.196 69.55 329.996 72.35 327.296 77.95C324.596 83.45 323.246 88.75 323.246 93.85C323.246 98.95 324.296 103.1 326.396 106.3C328.496 109.4 331.046 110.95 334.046 110.95C337.146 110.95 339.896 110.25 342.296 108.85C344.696 107.45 346.896 105.45 348.896 102.85C353.096 97.35 356.696 91.1 359.696 84.1C360.496 82.3 361.096 81 361.496 80.2C361.996 79.4 362.496 79 362.996 79C363.596 79 363.896 79.4 363.896 80.2C363.896 83.5 362.746 87.45 360.446 92.05C358.146 96.65 356.196 100.2 354.596 102.7C353.096 105.1 351.146 107.65 348.746 110.35C343.746 115.95 337.496 118.75 329.996 118.75C324.296 118.75 319.946 116.75 316.946 112.75C314.046 108.65 312.596 104.3 312.596 99.7C312.596 88.3 315.046 79.65 319.946 73.75C324.946 67.75 331.246 64.75 338.846 64.75C342.046 64.75 344.546 65.6 346.346 67.3C348.246 68.9 349.196 70.75 349.196 72.85C349.196 76.75 348.496 79.65 347.096 81.55C345.696 83.45 343.996 84.4 341.996 84.4C340.296 84.4 339.446 83.45 339.446 81.55ZM397.666 118.75C393.766 118.75 390.816 117.95 388.816 116.35C388.116 115.65 387.766 113.9 387.766 111.1C387.766 108.2 387.866 104.35 388.066 99.55C385.466 106.05 382.866 110.9 380.266 114.1C377.766 117.2 374.516 118.75 370.516 118.75C366.516 118.75 363.016 116.9 360.016 113.2C357.016 109.4 355.516 103.5 355.516 95.5C355.516 87.4 357.766 80.25 362.266 74.05C366.866 67.85 372.866 64.75 380.266 64.75C383.466 64.75 387.066 66.85 391.066 71.05C391.866 69.95 393.266 68.65 395.266 67.15C397.366 65.55 399.116 64.75 400.516 64.75C402.016 64.75 402.766 66.65 402.766 70.45C402.766 71.45 402.466 73.4 401.866 76.3C401.366 79.2 400.766 81.3 400.066 82.6C399.166 84.9 398.716 93.05 398.716 107.05C398.716 109.75 399.016 111.1 399.616 111.1C401.316 111 403.666 108.9 406.666 104.8C409.666 100.6 412.616 95.25 415.516 88.75C418.516 82.25 420.316 79 420.916 79C421.616 79 421.966 79.4 421.966 80.2C421.966 83 420.516 87.45 417.616 93.55C409.716 110.35 403.066 118.75 397.666 118.75ZM379.366 70.75C376.566 70.75 373.566 72.85 370.366 77.05C367.266 81.15 365.716 86 365.716 91.6C365.716 97.2 366.516 101.8 368.116 105.4C369.816 109 372.016 110.8 374.716 110.8C378.016 110.8 382.866 102.55 389.266 86.05C389.366 85.25 389.466 83.9 389.566 82C389.766 80 389.916 78.5 390.016 77.5C389.116 75.9 387.516 74.4 385.216 73C383.016 71.5 381.066 70.75 379.366 70.75ZM446.538 93.55C438.638 110.35 431.938 118.75 426.438 118.75C421.038 118.75 417.838 118.1 416.838 116.8C415.938 115.5 415.488 111.2 415.488 103.9C415.488 96.6 416.188 86.05 417.588 72.25C412.587 71.25 409.937 69.2 409.637 66.1C409.637 64.5 410.687 63.7 412.787 63.7C414.888 63.7 416.738 64.1 418.338 64.9C419.238 57.7 420.288 50.4 421.488 43C421.788 41.1 422.738 39.3 424.338 37.6C425.938 35.9 427.488 35.05 428.988 35.05C430.288 35.05 430.938 37.1 430.938 41.2C430.938 43.1 430.238 51.85 428.838 67.45C431.538 66.95 434.488 65.95 437.688 64.45C440.988 62.95 442.938 62.2 443.538 62.2C445.338 62.2 446.238 62.75 446.238 63.85C446.338 64.85 444.488 66.25 440.688 68.05C436.888 69.75 432.788 71.05 428.388 71.95C427.188 86.55 426.588 97.6 426.588 105.1C426.588 109.1 427.188 111.1 428.388 111.1C430.188 111 432.588 108.9 435.588 104.8C438.588 100.7 441.538 95.4 444.438 88.9C447.438 82.3 449.238 79 449.838 79C450.538 79 450.888 79.4 450.888 80.2C450.888 83 449.438 87.45 446.538 93.55ZM461.413 118.75C455.813 118.75 451.363 116.65 448.063 112.45C444.763 108.15 443.113 103.3 443.113 97.9C443.113 87 445.413 78.75 450.013 73.15C454.613 67.55 460.563 64.75 467.863 64.75C471.263 64.75 474.063 65.7 476.263 67.6C478.463 69.4 479.563 71.9 479.563 75.1C479.563 81.1 477.013 86.15 471.913 90.25C466.913 94.25 460.763 96.35 453.463 96.55C453.863 100.45 455.163 103.85 457.363 106.75C459.663 109.55 462.313 110.95 465.313 110.95C468.313 110.95 471.013 110.25 473.413 108.85C475.813 107.45 478.013 105.45 480.013 102.85C484.213 97.35 487.813 91.1 490.813 84.1C491.613 82.3 492.213 81 492.613 80.2C493.113 79.4 493.613 79 494.113 79C494.713 79 495.013 79.4 495.013 80.2C495.013 85.2 491.963 92.7 485.863 102.7C479.263 113.4 471.113 118.75 461.413 118.75ZM453.463 92.95C459.363 91.95 463.663 90.05 466.363 87.25C469.163 84.45 470.563 80.8 470.563 76.3C470.563 71.8 469.113 69.55 466.213 69.55C462.713 69.55 459.763 72 457.363 76.9C454.963 81.7 453.663 87.05 453.463 92.95Z" fill="#4C4C4E" fill-opacity="0.15"/>
<path d="M29.1 108.9C28.5667 108.967 27.7333 109 26.6 109C23.1333 109 19.7667 108.233 16.5 106.7C13.3 105.1 10.5333 102.9 8.2 100.1C5.93333 97.2333 4.36667 94.0333 3.5 90.5C2.83333 87.9 2.5 85.2667 2.5 82.6C2.5 76.8 4.06667 71.6333 7.2 67.1C10.3333 62.5 14.7333 59.3 20.4 57.5L33.7 53.3V49.6H53.7V84.7C53.7 86.3 54.2333 87.6 55.3 88.6C56.3667 89.5333 57.9 90 59.9 90H63.4L64.8 103L63.4 116H59.9C56.1667 116 52.6 115.267 49.2 113.8C45.8667 112.267 42.9667 110.133 40.5 107.4L29.1 108.9ZM22.2 81.9C22.2 83.2333 22.7 84.3 23.7 85.1C24.7667 85.9 26 86.1667 27.4 85.9L33.6 84.8V74.9L25.8 77.6C24.6 78 23.7 78.6 23.1 79.4C22.5 80.1333 22.2 80.9667 22.2 81.9ZM62.4883 90H64.1883C66.3216 90 67.9883 89.7333 69.1883 89.2C70.4549 88.6 71.5216 87.5 72.3883 85.9L80.3883 70.1C82.5216 65.9667 85.4883 62.8 89.2883 60.6C93.1549 58.4 97.3216 57.3 101.788 57.3C105.922 57.3 109.722 58.2 113.188 60C117.522 62.2 120.888 65.4667 123.288 69.8C125.755 74.0667 126.988 78.9333 126.988 84.4C126.988 90.4 125.455 96.5667 122.388 102.9C120.388 106.967 117.755 110.267 114.488 112.8C111.288 115.333 107.688 116.6 103.688 116.6C100.555 116.6 97.3883 115.8 94.1883 114.2L81.7883 107.9C76.7216 113.3 71.0216 116 64.6883 116H62.4883V90ZM105.388 93L107.088 89.5C107.822 88.1 108.188 86.7333 108.188 85.4C108.188 83 107.122 81.2667 104.988 80.2C104.122 79.7333 103.155 79.5 102.088 79.5C99.6883 79.5 97.7549 80.8667 96.2883 83.6L94.1883 87.5L105.388 93ZM161.671 116C155.671 116 150.838 115.033 147.171 113.1C143.504 111.1 140.771 108.033 138.971 103.9C137.238 99.7667 136.238 94.3333 135.971 87.6L134.071 37.6L156.571 36.5L158.471 84.9C158.604 87.1 158.871 88.5 159.271 89.1C159.671 89.7 160.671 90 162.271 90H164.871L166.371 103L164.871 116H161.671ZM164.051 90H173.651C175.117 90 176.151 89.8 176.751 89.4C177.417 89 177.751 88.3 177.751 87.3C177.751 86.7 177.651 86 177.451 85.2L173.051 69.3L192.651 63.5L197.451 81.6C198.317 84.6667 198.751 87.7667 198.751 90.9C198.751 95.6333 197.717 99.9333 195.651 103.8C193.651 107.6 190.751 110.6 186.951 112.8C183.217 114.933 178.884 116 173.951 116H164.051V90ZM170.751 37.6H187.951V54.8H170.751V37.6ZM268.361 144.1C264.094 145.033 260.228 145.5 256.761 145.5C250.294 145.5 244.728 144.067 240.061 141.2C235.394 138.4 231.861 134.433 229.461 129.3C227.061 124.167 225.861 118.133 225.861 111.2C225.861 102.133 227.861 92.3667 231.861 81.9L251.161 89.5C248.561 97.3 247.261 103.467 247.261 108C247.261 111.8 248.161 114.6 249.961 116.4C251.828 118.2 254.661 119.1 258.461 119.1C259.328 119.1 260.894 118.967 263.161 118.7C276.828 116.9 283.594 115.167 283.461 113.5C275.128 111.3 269.028 109.633 265.161 108.5L272.261 83.6C282.528 86.4667 289.761 88.2667 293.961 89C298.161 89.6667 301.894 90 305.161 90L306.661 103L305.161 116H301.461C301.394 121.667 300.328 126.2 298.261 129.6C296.194 133.067 292.828 135.867 288.161 138C283.494 140.2 276.894 142.233 268.361 144.1ZM304.383 90H311.583C309.916 86.4667 309.083 82.8333 309.083 79.1C309.083 74.8333 310.149 70.7333 312.283 66.8C315.149 61.6 319.283 57.9333 324.683 55.8L329.083 46.8L368.383 68.8C372.849 71.2667 376.316 74.6 378.783 78.8C381.249 83 382.483 87.4333 382.483 92.1C382.483 96.1667 381.483 100.067 379.483 103.8C377.216 108 374.183 111.3 370.383 113.7C366.583 116.033 362.516 117.2 358.183 117.2C354.049 117.2 349.916 116.1 345.783 113.9L337.983 109.7C331.049 113.9 322.683 116 312.883 116H304.383V90ZM328.883 76.7C328.416 77.5667 328.183 78.4333 328.183 79.3C328.183 81.1667 329.183 82.6667 331.183 83.8L336.183 86.6L338.083 83.4C338.883 82 339.283 80.7 339.283 79.5C339.283 77.5 338.316 75.9333 336.383 74.8C335.449 74.2667 334.549 74 333.683 74C332.683 74 331.749 74.2667 330.883 74.8C330.016 75.2667 329.349 75.9 328.883 76.7ZM355.283 97C356.216 97.4667 357.083 97.7 357.883 97.7C358.883 97.7 359.816 97.4667 360.683 97C361.549 96.4667 362.216 95.7667 362.683 94.9C363.083 94.1 363.283 93.3 363.283 92.5C363.283 91.5 363.016 90.5667 362.483 89.7C361.949 88.7667 361.216 88.0667 360.283 87.6L357.183 85.9C356.449 88.1667 355.683 89.9667 354.883 91.3C353.816 93.1667 352.983 94.5333 352.383 95.4L355.283 97ZM390.352 37.7L413.552 36.5L416.552 115.7L393.352 116.7L390.352 37.7ZM442.705 120.8C447.972 119.8 451.739 119.033 454.005 118.5C456.272 117.967 457.939 117.433 459.005 116.9C460.072 116.433 460.739 115.8 461.005 115C459.139 114.933 455.905 114.9 451.305 114.9C446.239 114.9 441.672 113.867 437.605 111.8C433.539 109.667 430.305 106.467 427.905 102.2C425.505 97.9333 424.305 92.7333 424.305 86.6C424.305 80.8667 425.439 75.7333 427.705 71.2C430.039 66.6667 433.239 63.1333 437.305 60.6C441.372 58 445.905 56.7 450.905 56.7C455.372 56.7 459.539 57.8 463.405 60C467.339 62.2 470.605 65.4667 473.205 69.8C475.872 74.0667 477.572 79.2333 478.305 85.3L478.905 90.1L484.705 90H485.505L486.805 103.1L485.505 116H484.705H482.005C482.139 122.467 480.572 127.667 477.305 131.6C474.105 135.533 469.472 138.6 463.405 140.8C457.339 143.067 449.072 145.267 438.605 147.4L433.205 122.7L442.705 120.8ZM444.505 85.3C444.505 86.9667 444.972 88.3333 445.905 89.4C446.839 90.4 448.239 90.8667 450.105 90.8L457.905 90.6L457.505 87.5C457.172 84.7 456.372 82.5667 455.105 81.1C453.905 79.5667 452.372 78.8 450.505 78.8C448.772 78.8 447.339 79.4 446.205 80.6C445.072 81.8 444.505 83.3667 444.505 85.3ZM484.852 90H505.452C506.985 90 507.818 89.9333 507.952 89.8V89.7C507.952 89.4333 507.552 88.6667 506.752 87.4L488.252 61.1L493.052 42.9L493.252 42.8L489.252 31.4L513.652 22.6L517.652 33.8L531.352 28.8L539.352 52.7L515.352 61.5L526.352 78C528.152 80.6667 529.518 83.5333 530.452 86.6C531.385 89.6 531.852 92.5667 531.852 95.5C531.852 100.1 530.752 103.967 528.552 107.1C526.418 110.033 523.952 112.267 521.152 113.8C518.352 115.267 514.852 116 510.652 116H484.852V90Z" fill="#4C4C4E"/>
<a href="http://localhost:3000/#certificate">
<rect fill="black" fill-opacity="0" width="540.152" height="153"/>
</a>
</svg>
